# xmcd
#
# Track frame offsets: 
#        150
#        4242
#        22167
#        34727
#        52712
#        64772
#        70380
#        102877
#        121427
#        140705
#        158765
#        178235
#
# Disc length: 2747 seconds
#
# Revision: 5
# Processed by: cddbd v1.5.2PL0 Copyright (c) Steve Scherf et al.
# Submitted via: ExactAudioCopyFreeDBPlugin 1.0
#
DISCID=a70ab90c
DTITLE=S.E.N.S. (神思者) - 伽羅 海のシルクロード
DYEAR=1989
DGENRE=New Age
TTITLE0=S-Tone
TTITLE1=伽羅
TTITLE2=妙音鳥(ミョウオンチョウ)
TTITLE3=ポーヤの夜
TTITLE4=ガジュマル (榕樹)
TTITLE5=So Far
TTITLE6=飛鳥
TTITLE7=アフロディーテ~瑠璃色の海
TTITLE8=海神~長江ヘ
TTITLE9=O―PURA U―PURA
TTITLE10=青花 (セイカ)
TTITLE11=安敦 (アントン)
EXTD=
EXTT0=
EXTT1=
EXTT2=
EXTT3=
EXTT4=
EXTT5=
EXTT6=
EXTT7=
EXTT8=
EXTT9=
EXTT10=
EXTT11=
PLAYORDER=
